<svg width="1063" height="1057" xmlns="http://www.w3.org/2000/svg" xmlns:xlink="http://www.w3.org/1999/xlink" overflow="hidden"><defs><clipPath id="clip0"><rect x="1212" y="251" width="1063" height="1057"/></clipPath><linearGradient x1="2200" y1="795" x2="1212" y2="795" gradientUnits="userSpaceOnUse" spreadMethod="reflect" id="fill1"><stop offset="0" stop-color="#FFF6DD"/><stop offset="0.23" stop-color="#FFF6DD"/><stop offset="0.84" stop-color="#DAE3F3"/><stop offset="1" stop-color="#DAE3F3"/></linearGradient></defs><g clip-path="url(#clip0)" transform="translate(-1212 -251)"><path d="M1212 380.622C1212 336.648 1247.65 301 1291.62 301L2120.38 301C2164.35 301 2200 336.648 2200 380.622L2200 1209.38C2200 1253.35 2164.35 1289 2120.38 1289L1291.62 1289C1247.65 1289 1212 1253.35 1212 1209.38Z" fill="url(#fill1)" fill-rule="evenodd"/><text font-family="Broadway,Broadway_MSFontService,sans-serif" font-weight="700" font-size="220" transform="matrix(1 0 0 1 1589.41 531)">Surv<tspan font-size="220" x="202.24" y="264">ive</tspan><tspan font-size="220" x="-75.052" y="528">XJTU</tspan><tspan font-family="Times New Roman,Times New Roman_MSFontService,sans-serif" font-size="110" x="493.854" y="685">⁋</tspan></text><path d="M0 0 512.508 0.000360892" stroke="#000000" stroke-width="6.875" stroke-miterlimit="8" stroke-dasharray="27.5 20.625" fill="none" fill-rule="evenodd" transform="matrix(-1 0 0 1 2034.01 1237.5)"/></g></svg>